<svg xmlns="http://www.w3.org/2000/svg" xmlns:xlink="http://www.w3.org/1999/xlink" version="1.1" width="256" height="256" viewBox="0 0 256 256" xml:space="preserve">

<defs fill="#ffbd39">
</defs>
<g style="stroke: none; stroke-width: 0; stroke-dasharray: none; stroke-linecap: butt; stroke-linejoin: miter; stroke-miterlimit: 10; fill: none; fill-rule: nonzero; opacity: 1;" transform="translate(1.4065934065934016 1.4065934065934016) scale(2.81 2.81)">
	<path d="M 48.003 40.57 l 12.62 -12.62 L 13.472 1.165 C 11.31 -0.072 9.32 -0.277 7.777 0.344 L 48.003 40.57 z" style="stroke: none; stroke-width: 1; stroke-dasharray: none; stroke-linecap: butt; stroke-linejoin: miter; stroke-miterlimit: 10; fill:#ffbd39; fill-rule: nonzero; opacity: 1;" transform=" matrix(1 0 0 1 0 0) " stroke-linecap="round"/>
	<path d="M 4.646 5.7 C 4.635 5.902 4.605 6.085 4.605 6.296 v 77.381 c 0 0.097 0.007 0.187 0.01 0.282 l 39.145 -39.145 L 4.646 5.7 z" style="stroke: none; stroke-width: 1; stroke-dasharray: none; stroke-linecap: butt; stroke-linejoin: miter; stroke-miterlimit: 10; fill:#ffbd39; fill-rule: nonzero; opacity: 1;" transform=" matrix(1 0 0 1 0 0) " stroke-linecap="round"/>
	<path d="M 48.003 49.057 L 7.498 89.562 c 1.578 0.749 3.681 0.569 5.974 -0.712 l 47.376 -26.948 L 48.003 49.057 z" style="stroke: none; stroke-width: 1; stroke-dasharray: none; stroke-linecap: butt; stroke-linejoin: miter; stroke-miterlimit: 10; fill:#ffbd39; fill-rule: nonzero; opacity: 1;" transform=" matrix(1 0 0 1 0 0) " stroke-linecap="round"/>
	<path d="M 81.721 39.931 L 66.04 31.02 L 52.246 44.814 L 66.26 58.828 l 15.461 -8.786 C 86.62 47.242 86.62 42.692 81.721 39.931 z" style="stroke: none; stroke-width: 1; stroke-dasharray: none; stroke-linecap: butt; stroke-linejoin: miter; stroke-miterlimit: 10; fill:#ffbd39; fill-rule: nonzero; opacity: 1;" transform=" matrix(1 0 0 1 0 0) " stroke-linecap="round"/>
</g>
</svg>